<svg width="685" height="685" viewBox="0 0 685 685" fill="none" xmlns="http://www.w3.org/2000/svg">
<path d="M431 326.5L367.5 463H301.5L188 267L235.5 103.5L407.5 71.5C407.5 71.5 581 185.5 584 186.5C587 187.5 585 209.5 585 209.5L431 326.5Z" fill="white"/>
<path d="M39.2245 431.159C37.5435 420.171 35.252 409.237 34.2849 398.186C29.5203 343.745 38.0091 291.329 59.7113 241.176C73.0544 210.341 90.822 182.207 112.418 156.416C136.522 127.63 164.771 103.812 197.275 85.1856C229.754 66.5741 264.566 54.0106 301.417 47.2827C330.408 41.9898 359.612 40.5517 388.946 43.5251C425.006 47.18 459.532 56.5932 491.761 73.2758C521.981 88.9181 546.897 110.945 565.885 139.266C574.584 152.24 583.125 175.486 585.009 191.091C557.009 182.091 522.828 191.309 480.009 227.091C478.63 218.078 474.16 208.235 470.98 200C460.009 171.591 446.932 146.77 420.112 131.238C390.344 113.998 358.119 111.889 324.907 116.55C310.771 118.534 297.598 123.569 283.958 129.556C274.31 133.338 264.61 135.587 256.453 140.433C215.469 164.782 186.237 199.558 168.475 243.725C154.137 279.38 148.723 316.481 152.946 354.777C157.036 391.876 167.703 427.028 184.856 460.213C190.653 471.43 196.14 482.806 201.812 494.557C203.5 504.284 203.887 514.026 207.084 522.738C211.979 536.076 218.358 548.94 224.929 561.578C234.494 579.977 245.201 597.722 259.249 613.189C262.764 620.815 266.28 628.44 269.795 636.066C269.388 636.684 268.982 637.302 268.575 637.92C258.859 636.229 248.854 635.496 239.48 632.672C205.903 622.557 175.328 606.852 150.55 581.394C129.673 559.944 115.244 534.427 104.317 506.772C103.835 505.552 103.15 504.412 102.222 502.629C101.055 497.301 100.481 492.515 99.3507 487.864C94.3902 467.456 91.2994 446.874 91.8612 425.773C92.0995 416.824 91.3829 407.841 90.8998 398.884C90.7284 395.706 89.9626 392.56 89.4681 389.4C89.0682 389.223 88.6683 389.046 88.2684 388.87C87.8682 389.591 87.527 390.353 87.0586 391.027C81.7509 398.662 76.1636 406.117 71.1626 413.947C63.6431 425.72 53.4621 432.083 39.2245 431.159Z" fill="#274DD7" stroke="#274DD7" stroke-linejoin="round"/>
<path d="M201.768 494.11C196.14 482.806 190.653 471.429 184.856 460.213C167.703 427.028 157.036 391.876 152.945 354.777C148.723 316.481 154.137 279.38 168.475 243.725C186.237 199.558 215.469 165.782 256.453 141.433C267.009 135.162 275.153 133.707 284.509 130.091C280.237 135.947 275.307 142.146 270.016 147.53C251.097 166.783 239.398 189.672 234.75 216.084C233.378 223.88 233.473 231.974 233.342 239.939C233.198 248.664 238.001 254.681 244.581 259.984C261.777 273.842 278.693 288.046 296.272 302.567C293.121 307.125 290.545 310.88 287.938 314.615C281.552 323.766 275.891 333.186 272.679 344.091C267.162 362.821 271.648 379.447 282.955 394.351C295.753 411.222 314.392 418.181 334.386 421.933C340.861 423.147 354.699 423.765 354.699 423.765H358.009C359.068 433.138 357.999 431.295 359.344 440.422C361.39 454.308 370.153 464.255 380.313 473.133C377.351 521.075 396.192 559.867 430.509 592.015C437.412 598.482 445.005 604.214 452.304 610.255C454.067 611.714 455.926 613.056 458.468 615.011C454.733 617.244 452.358 618.665 449.198 620.062C435.515 618.725 422.602 617.542 409.721 616.073C365.969 611.083 325.996 595.432 288.84 572.33C257.472 552.828 231.12 527.587 207.466 499.394C205.814 497.425 203.679 495.862 201.768 494.11Z" fill="#F1B244" stroke="#F1B244" stroke-linejoin="round"/>
<path d="M417.948 306.913C430.343 298.831 437.976 286.404 446.86 275.135C464.502 252.758 486.588 235.499 510.25 220.097C525.717 210.029 542.295 202.818 560.747 199.756C575.67 197.28 588.13 201.358 598.724 211.457C632.806 243.946 650.426 283.957 651.417 330.924C652.199 368.027 643.509 403.198 626.22 436.011C610.651 465.559 589.332 490.175 560.246 507.166C552.503 511.689 543.505 514.064 535.083 517.425C534.662 516.963 534.241 516.501 533.821 516.039C534.767 511.936 535.63 507.811 536.674 503.733C540.543 488.628 546.5 473.99 546.703 458.073C546.887 443.692 544.261 430.021 537.007 417.398C533.536 411.357 527.75 409.29 521.587 407.48C510.12 404.112 498.485 401.136 487.341 396.891C468.676 389.781 454.266 376.986 442.667 360.868C439.525 356.502 436.085 352.35 432.407 347.785C431.602 346.429 431.358 345.251 430.713 344.366C422.578 333.195 418.491 320.663 417.948 306.913ZM635.953 300.861C634.255 283.386 628.304 267.616 617.19 253.899C609.891 244.892 599.855 241.067 590.78 244.27C596.89 261.096 603.956 277.646 608.837 294.817C613.685 311.872 616.336 329.551 620.018 347.286C629.022 342.041 634.432 335.75 634.897 326.189C635.293 318.064 635.611 309.935 635.953 300.861Z" fill="#1A2051" stroke="#1A2051" stroke-linejoin="round"/>
<path d="M417.617 307.022C418.491 320.663 422.578 333.195 430.713 344.365C431.358 345.251 431.602 346.429 432.052 347.848C433.756 356.309 435.347 364.415 437.145 372.473C441.727 393.015 450.872 411.098 465.941 426.051C476.16 436.192 488.452 442.22 502.345 445.362C505.742 446.131 509.121 447.041 512.432 448.12C516.568 449.468 517.424 452.898 514.531 456.235C500.178 472.786 481.932 482.523 460.663 486.983C432.272 492.936 405.919 487.173 380.645 473.173C370.153 464.255 361.39 454.308 359.344 440.422C357.999 431.295 357.789 422.001 356.977 412.294C361.929 368.207 380.654 332.503 417.617 307.022Z" fill="#111946" stroke="#111946" stroke-linejoin="round"/>
<path d="M201.812 494.557C203.679 495.862 205.814 497.425 207.466 499.394C231.12 527.587 257.472 552.828 288.84 572.33C325.996 595.432 365.969 611.083 409.721 616.073C422.602 617.542 435.515 618.725 448.864 620.137C435.221 629.131 419.604 634.139 403.57 638.009C384.191 642.687 364.481 643.696 344.643 642.887C325.281 642.097 306.902 637.588 289.693 628.44C279.871 623.219 269.837 618.394 259.573 613.29C245.201 597.722 234.494 579.977 224.929 561.578C218.358 548.94 211.979 536.076 207.084 522.738C203.887 514.027 203.5 504.284 201.812 494.557Z" fill="#54B6BB" stroke="#54B6BB" stroke-linejoin="round"/>
<path d="M39.1797 431.544C53.4619 432.083 63.643 425.72 71.1624 413.947C76.1635 406.117 81.7507 398.662 87.0584 391.027C87.5269 390.353 87.868 389.591 88.2682 388.87C88.6681 389.046 89.068 389.223 89.4679 389.4C89.9624 392.56 90.7282 395.706 90.8997 398.885C91.3827 407.841 92.0993 416.824 91.861 425.773C91.2992 446.874 94.39 467.456 99.3505 487.864C100.481 492.515 101.055 497.301 101.922 502.422C101.698 513.592 101.661 524.377 101.045 535.129C100.845 538.604 99.1235 541.993 97.8671 546.193C88.372 538.312 80.5486 530.342 74.4374 520.7C57.085 493.32 45.959 463.486 39.1797 431.544Z" fill="#192E9B" stroke="#192E9B" stroke-linejoin="round"/>
<path d="M401.574 240.045C400.992 245.096 400.641 249.746 399.772 254.297C398.59 260.497 394.314 264.381 389.05 267.365C386.894 268.587 384.793 269.906 382.135 271.5C380.684 264.367 379.321 257.612 377.935 250.861C374.726 235.233 366.224 224.398 350.324 220.119C341.948 217.865 334.206 220.048 326.556 223.119C321.673 225.079 316.835 227.151 311.761 229.263C315.775 208.543 337.638 192.542 358.996 194.327C384.218 196.435 401.119 214.405 401.574 240.045Z" fill="#181E43" stroke="#181E43" stroke-linejoin="round"/>
<path d="M635.958 301.334C635.611 309.935 635.293 318.064 634.897 326.189C634.432 335.75 629.022 342.041 620.018 347.286C616.336 329.551 613.685 311.872 608.837 294.817C603.956 277.646 596.89 261.096 590.78 244.271C599.855 241.067 609.891 244.892 617.19 253.899C628.304 267.616 634.255 283.386 635.958 301.334Z" fill="#464A98" stroke="#464A98" stroke-linejoin="round"/>
</svg>
